<?xml version="1.0" encoding="UTF-8" standalone="no"?>
<!-- Created with Inkscape (http://www.inkscape.org/) -->

<svg
   xmlns:dc="http://purl.org/dc/elements/1.1/"
   xmlns:cc="http://creativecommons.org/ns#"
   xmlns:rdf="http://www.w3.org/1999/02/22-rdf-syntax-ns#"
   xmlns:svg="http://www.w3.org/2000/svg"
   xmlns="http://www.w3.org/2000/svg"
   xmlns:xlink="http://www.w3.org/1999/xlink"
   xmlns:sodipodi="http://sodipodi.sourceforge.net/DTD/sodipodi-0.dtd"
   xmlns:inkscape="http://www.inkscape.org/namespaces/inkscape"
   sodipodi:docname="search-lands.svg"
   inkscape:version="0.48.2 r9819"
   sodipodi:version="0.32"
   id="svg11300"
   height="24"
   width="24"
   inkscape:output_extension="org.inkscape.output.svg.inkscape"
   version="1.1">
  <defs
     id="defs3">
    <inkscape:perspective
       sodipodi:type="inkscape:persp3d"
       inkscape:vp_x="0 : 24 : 1"
       inkscape:vp_y="0 : 1000 : 0"
       inkscape:vp_z="48 : 24 : 1"
       inkscape:persp3d-origin="24 : 16 : 1"
       id="perspective47" />
    <linearGradient
       id="linearGradient2846">
      <stop
         id="stop2848"
         offset="0.0000000"
         style="stop-color:#8a8a8a;stop-opacity:1.0000000;" />
      <stop
         id="stop2850"
         offset="1.0000000"
         style="stop-color:#484848;stop-opacity:1.0000000;" />
    </linearGradient>
    <linearGradient
       id="linearGradient2366">
      <stop
         id="stop2368"
         offset="0"
         style="stop-color:#ffffff;stop-opacity:1;" />
      <stop
         style="stop-color:#ffffff;stop-opacity:0.21904762;"
         offset="0.50000000"
         id="stop2374" />
      <stop
         id="stop2370"
         offset="1.0000000"
         style="stop-color:#ffffff;stop-opacity:1.0000000;" />
    </linearGradient>
    <linearGradient
       inkscape:collect="always"
       id="linearGradient4487">
      <stop
         style="stop-color:#ffffff;stop-opacity:1;"
         offset="0"
         id="stop4489" />
      <stop
         style="stop-color:#ffffff;stop-opacity:0;"
         offset="1"
         id="stop4491" />
    </linearGradient>
    <linearGradient
       inkscape:collect="always"
       id="linearGradient4477">
      <stop
         style="stop-color:#000000;stop-opacity:1;"
         offset="0"
         id="stop4479" />
      <stop
         style="stop-color:#000000;stop-opacity:0;"
         offset="1"
         id="stop4481" />
    </linearGradient>
    <linearGradient
       id="linearGradient4467">
      <stop
         style="stop-color:#ffffff;stop-opacity:1;"
         offset="0"
         id="stop4469" />
      <stop
         style="stop-color:#ffffff;stop-opacity:0.24761905;"
         offset="1.0000000"
         id="stop4471" />
    </linearGradient>
    <linearGradient
       id="linearGradient4454">
      <stop
         style="stop-color:#729fcf;stop-opacity:0.09411765;"
         offset="0"
         id="stop4456" />
      <stop
         style="stop-color:#729fcf;stop-opacity:0.33725491;"
         offset="1"
         id="stop4458" />
    </linearGradient>
    <linearGradient
       id="linearGradient4440">
      <stop
         style="stop-color:#7d7d7d;stop-opacity:1;"
         offset="0"
         id="stop4442" />
      <stop
         id="stop4448"
         offset="0.50000000"
         style="stop-color:#b1b1b1;stop-opacity:1.0000000;" />
      <stop
         style="stop-color:#686868;stop-opacity:1.0000000;"
         offset="1.0000000"
         id="stop4444" />
    </linearGradient>
    <linearGradient
       inkscape:collect="always"
       xlink:href="#linearGradient4440"
       id="linearGradient4446"
       x1="30.65625"
       y1="34"
       x2="33.21875"
       y2="31.0625"
       gradientUnits="userSpaceOnUse"
       gradientTransform="matrix(1.334593,0,0,1.291292,-6.973842,-7.460658)" />
    <radialGradient
       inkscape:collect="always"
       xlink:href="#linearGradient4454"
       id="radialGradient4460"
       cx="18.240929"
       cy="21.817987"
       fx="18.240929"
       fy="21.817987"
       r="8.3085051"
       gradientUnits="userSpaceOnUse" />
    <radialGradient
       inkscape:collect="always"
       xlink:href="#linearGradient4467"
       id="radialGradient4473"
       cx="15.414371"
       cy="13.078408"
       fx="15.414371"
       fy="13.078408"
       r="6.65625"
       gradientTransform="matrix(2.592963,0,0,2.252104,-25.05975,-18.941)"
       gradientUnits="userSpaceOnUse" />
    <radialGradient
       inkscape:collect="always"
       xlink:href="#linearGradient4487"
       id="radialGradient4493"
       cx="24.130018"
       cy="37.967922"
       fx="24.130018"
       fy="37.967922"
       r="16.528622"
       gradientTransform="matrix(1,0,0,0.237968,0,28.93278)"
       gradientUnits="userSpaceOnUse" />
    <linearGradient
       gradientUnits="userSpaceOnUse"
       y2="25.743469"
       x2="17.500893"
       y1="13.602121"
       x1="18.292673"
       id="linearGradient2372"
       xlink:href="#linearGradient2366"
       inkscape:collect="always" />
    <radialGradient
       r="16.528622"
       fy="37.967922"
       fx="24.130018"
       cy="37.967922"
       cx="24.130018"
       gradientTransform="matrix(1,0,0,0.237968,0,28.93278)"
       gradientUnits="userSpaceOnUse"
       id="radialGradient2842"
       xlink:href="#linearGradient4477"
       inkscape:collect="always" />
    <linearGradient
       gradientUnits="userSpaceOnUse"
       y2="30.557772"
       x2="31.335964"
       y1="26.580296"
       x1="27.366341"
       id="linearGradient2852"
       xlink:href="#linearGradient2846"
       inkscape:collect="always" />
    <radialGradient
       inkscape:collect="always"
       xlink:href="#linearGradient4467"
       id="radialGradient3031"
       gradientUnits="userSpaceOnUse"
       gradientTransform="matrix(1.2964815,0,0,1.126052,-12.493813,14.509179)"
       cx="15.414371"
       cy="13.078408"
       fx="15.414371"
       fy="13.078408"
       r="6.65625" />
    <linearGradient
       inkscape:collect="always"
       xlink:href="#linearGradient4440"
       id="linearGradient3038"
       gradientUnits="userSpaceOnUse"
       gradientTransform="matrix(0.6672965,0,0,0.645646,-3.4508592,20.24935)"
       x1="30.65625"
       y1="34"
       x2="33.21875"
       y2="31.0625" />
    <linearGradient
       inkscape:collect="always"
       xlink:href="#linearGradient2846"
       id="linearGradient3042"
       gradientUnits="userSpaceOnUse"
       x1="27.366341"
       y1="26.580296"
       x2="31.335964"
       y2="30.557772"
       gradientTransform="matrix(0.5,0,0,0.5,0.0360618,23.979679)" />
  </defs>
  <sodipodi:namedview
     stroke="#3465a4"
     inkscape:window-y="23"
     inkscape:window-x="0"
     inkscape:window-height="717"
     inkscape:window-width="1366"
     inkscape:showpageshadow="false"
     inkscape:document-units="px"
     inkscape:grid-bbox="true"
     showgrid="false"
     inkscape:current-layer="layer1"
     inkscape:cy="9.4397975"
     inkscape:cx="4.3281281"
     inkscape:zoom="15.999999"
     inkscape:pageshadow="2"
     inkscape:pageopacity="0.0"
     borderopacity="0.25490196"
     bordercolor="#666666"
     pagecolor="#ffffff"
     id="base"
     fill="#729fcf"
     inkscape:window-maximized="1" />
  <metadata
     id="metadata4">
    <rdf:RDF>
      <cc:Work
         rdf:about="">
        <dc:format>image/svg+xml</dc:format>
        <dc:type
           rdf:resource="http://purl.org/dc/dcmitype/StillImage" />
        <dc:creator>
          <cc:Agent>
            <dc:title>Jakub Steiner</dc:title>
          </cc:Agent>
        </dc:creator>
        <dc:source>http://jimmac.musichall.cz</dc:source>
        <cc:license
           rdf:resource="http://creativecommons.org/licenses/publicdomain/" />
      </cc:Work>
      <cc:License
         rdf:about="http://creativecommons.org/licenses/publicdomain/">
        <cc:permits
           rdf:resource="http://creativecommons.org/ns#Reproduction" />
        <cc:permits
           rdf:resource="http://creativecommons.org/ns#Distribution" />
        <cc:permits
           rdf:resource="http://creativecommons.org/ns#DerivativeWorks" />
      </cc:License>
    </rdf:RDF>
  </metadata>
  <g
     inkscape:groupmode="layer"
     inkscape:label="Layer 1"
     id="layer1"
     transform="translate(0,-24)">
    <path
       style="fill:#000000;fill-opacity:1;stroke:#000000;stroke-width:0.5px;stroke-linecap:butt;stroke-linejoin:round;stroke-opacity:1"
       d="m 3.5402471,37.096031 c 0.05208,-0.2157 0.243011,-0.11 0.357142,-0.1785 0.03609,-0.021 -0.16369,-0.082 -0.133928,-0.1116 0.08929,-0.089 0.178571,-0.1786 0.267857,-0.2679 0.05952,-0.059 0.10853,-0.1318 0.178571,-0.1785 0.05537,-0.037 0.123199,-0.052 0.178572,-0.089 0.03502,-0.024 0.05427,-0.066 0.08929,-0.089 0.05537,-0.037 0.123198,-0.052 0.178571,-0.089 0.03502,-0.024 0.05952,-0.06 0.08929,-0.089 0.02976,-0.03 0.06594,-0.054 0.08929,-0.089 0.03692,-0.055 0.05237,-0.1232 0.08929,-0.1785 0.06868,-0.1031 0.199176,-0.1649 0.267857,-0.2679 0.03692,-0.055 0.05237,-0.1232 0.08929,-0.1786 0.02335,-0.035 0.07598,-0.049 0.08929,-0.089 0.01882,-0.056 -0.01882,-0.1221 0,-0.1785 0.01331,-0.04 0.06594,-0.054 0.08929,-0.089 0.03692,-0.055 0.05237,-0.1232 0.08929,-0.1786 0.02335,-0.035 0.07598,-0.05 0.08929,-0.089 0.01882,-0.056 -0.01444,-0.1208 0,-0.1785 0.01614,-0.065 0.07315,-0.114 0.08929,-0.1786 0.01444,-0.058 -0.01444,-0.1208 0,-0.1786 0.01614,-0.064 0.05952,-0.119 0.08929,-0.1786 0.02976,-0.06 0.05952,-0.119 0.08929,-0.1785 0.119048,-0.2381 0.238096,-0.4762 0.357143,-0.7143 0.02976,-0.06 0.05952,-0.1191 0.08929,-0.1786 0.02976,-0.06 0.07315,-0.114 0.08929,-0.1786 0.01444,-0.058 -0.01444,-0.1208 0,-0.1785 0.03228,-0.1292 0.14629,-0.228 0.178572,-0.3572 0.01444,-0.058 -0.01882,-0.1221 0,-0.1785 0.01331,-0.04 0.07598,-0.049 0.08929,-0.089 0.01882,-0.057 -0.01882,-0.1221 0,-0.1786 0.01331,-0.04 0.07046,-0.052 0.08929,-0.089 0.08418,-0.1683 0.09439,-0.3673 0.178571,-0.5357 0.204312,-0.4086 -0.03701,0.3789 0.178571,-0.2679 0.01882,-0.056 -0.01883,-0.1221 0,-0.1785 0.02104,-0.063 0.06824,-0.1155 0.08929,-0.1786 0.0094,-0.029 -0.0094,-0.061 0,-0.089 0.02104,-0.063 0.06824,-0.1154 0.08929,-0.1786 0.02641,-0.079 -0.02923,-0.3879 0,-0.4464 0.132164,-0.2643 0.424641,0.067 0.535714,0.1786 0.02976,0.03 0.06594,0.054 0.08929,0.089 0.03691,0.055 0.05237,0.1232 0.08929,0.1785 0.04669,0.07 0.140925,0.1033 0.178571,0.1786 0.02662,0.053 -0.02662,0.1253 0,0.1786 0.01882,0.038 0.07046,0.052 0.08929,0.089 0.01331,0.026 -0.01331,0.063 0,0.089 0.01883,0.038 0.07046,0.052 0.08929,0.089 0.03571,0.072 -0.03572,0.1965 0,0.2679 0.01882,0.037 0.07046,0.052 0.08928,0.089 0.01331,0.026 -0.01331,0.063 0,0.089 0.01883,0.037 0.07046,0.052 0.08929,0.089 0.01331,0.027 -0.01331,0.063 0,0.089 0.01882,0.037 0.07046,0.052 0.08929,0.089 0.01331,0.027 -0.0094,0.061 0,0.089 0.02105,0.063 0.06824,0.1155 0.08929,0.1786 0.0094,0.028 -0.01331,0.063 0,0.089 0.01882,0.037 0.07046,0.052 0.08929,0.089 0.01331,0.027 -0.0094,0.061 0,0.089 0.02105,0.063 0.05952,0.1191 0.08929,0.1786 0.02976,0.06 0.05237,0.1232 0.08929,0.1786 0.06868,0.103 0.199176,0.1648 0.267857,0.2678 0.03692,0.055 0.05237,0.1232 0.08929,0.1786 0.149023,0.2236 0.444328,0.8705 0.6696429,0.8705 0.05952,0 0.278353,-0.1372 0.513394,-0.4464 1.482851,-1.1186 0.925747,-0.9715 1.852678,-0.1562 0.02976,0.03 0.05952,0.059 0.08929,0.089 0.02976,0.03 0.07046,0.052 0.08929,0.089 0.02662,0.053 -0.02662,0.1254 0,0.1786 0.296124,0.2961 -0.04209,-0.084 0.08929,0.1786 0.03765,0.075 0.140925,0.1033 0.178571,0.1786 0.03571,0.071 -0.03571,0.1964 0,0.2678 0.01883,0.037 0.07046,0.052 0.08929,0.089 0.02662,0.053 -0.02662,0.1253 0,0.1786 0.01882,0.037 0.07046,0.052 0.08929,0.089 0.01331,0.027 -0.0094,0.061 0,0.089 0.02104,0.063 0.06824,0.1155 0.08929,0.1786 0.0094,0.028 -0.01331,0.063 0,0.089 0.01882,0.037 0.07046,0.052 0.08929,0.089 0.01331,0.026 -0.01331,0.063 0,0.089 0.01882,0.037 0.07046,0.052 0.08929,0.089 0.02662,0.053 -0.02662,0.1253 0,0.1785 0.01882,0.038 0.07046,0.052 0.08929,0.089 0.01331,0.026 -0.01331,0.063 0,0.089 0.03765,0.075 0.140925,0.1033 0.178571,0.1786 0.01331,0.026 -0.01331,0.063 0,0.089 0.01882,0.038 0.06594,0.054 0.08929,0.089 0.03691,0.055 0.05237,0.1232 0.08929,0.1786 0.02334,0.035 0.07046,0.052 0.08929,0.089 0.01331,0.026 -0.01331,0.063 0,0.089 0.296124,0.2961 -0.04209,-0.084 0.08929,0.1786 0.01882,0.038 0.07046,0.052 0.08929,0.089 0.02662,0.053 -0.02662,0.1254 0,0.1786 0.01882,0.037 0.07046,0.052 0.08929,0.089 0.01331,0.026 0.02976,0.089 0,0.089 -0.02976,0 0,-0.1191 0,-0.089 0,0.1191 0,0.2381 0,0.3571 0,0.041 0.01359,0.2407 0,0.2679 -0.01186,0.024 -0.24415,0.256 -0.267857,0.2679 -0.05324,0.027 -0.125331,-0.026 -0.178571,0 -0.03765,0.019 -0.05164,0.07 -0.08929,0.089 -0.02662,0.014 -0.06267,-0.014 -0.08929,0 -0.03764,0.019 -0.05164,0.071 -0.08929,0.089 -0.05324,0.027 -0.122102,-0.019 -0.178572,0 -0.06313,0.021 -0.115437,0.068 -0.178571,0.089 -0.09488,0.032 -0.262267,-0.032 -0.357143,0 -0.06313,0.021 -0.115437,0.068 -0.178571,0.089 -0.02823,0.01 -0.06105,-0.01 -0.08929,0 -0.06314,0.021 -0.113314,0.076 -0.178572,0.089 -0.08755,0.017 -0.178571,0 -0.267857,0 -0.05952,0 -0.122102,-0.019 -0.178571,0 -0.03993,0.014 -0.04936,0.076 -0.08929,0.089 -0.112938,0.037 -0.24165,-0.029 -0.357143,0 -0.06456,0.016 -0.114008,0.073 -0.178571,0.089 -0.115493,0.029 -0.244204,-0.037 -0.357143,0 -0.03993,0.014 -0.04935,0.076 -0.08929,0.089 -0.05647,0.019 -0.120203,-0.012 -0.178571,0 -0.09229,0.018 -0.175569,0.071 -0.267857,0.089 -0.08755,0.018 -0.178573,0 -0.267858,0 -0.1785719,0 -0.3571429,0 -0.5357149,0 -0.357143,0 -0.714285,0 -1.071428,0 -0.178572,0 -0.357143,0 -0.535715,0 -0.02976,0 -0.06041,0.01 -0.08928,0 -0.09131,-0.023 -0.175022,-0.074 -0.267857,-0.089 -0.08807,-0.014 -0.178572,0 -0.267857,0 -0.297619,0 -0.595237,0 -0.892856,0 -0.119048,0 -0.238096,0 -0.357143,0 -0.05952,0 -0.122103,0.019 -0.178572,0 -0.126269,-0.042 -0.230874,-0.1364 -0.357143,-0.1785 -0.05647,-0.019 -0.122102,0.019 -0.178571,0 -0.06314,-0.021 -0.115437,-0.068 -0.178571,-0.089 -0.02823,-0.01 -0.06105,0.01 -0.08929,0 -0.07883,-0.026 -0.465063,-0.2208 -0.535715,-0.2679 -0.03502,-0.024 -0.05426,-0.066 -0.08929,-0.089 -0.451054,-0.3007 -0.0021,0 -0.267857,-0.089 -0.06314,-0.021 -0.119047,-0.06 -0.178571,-0.089 -0.05952,-0.03 -0.124418,-0.051 -0.178572,-0.089 -0.155072,-0.1108 -0.07441,-0.2158 -0.223214,-0.3349 z"
       id="path2998"
       inkscape:connector-curvature="0"
       sodipodi:nodetypes="ccccccccccccccccccccccccccccccccccccccccccccccccccccccccccccccsccccccccccccccccccccccccccccccsssccccccccccccsccccccccssssccsssccccccccccc" />
    <path
       transform="matrix(0.7232155,0,0,0.759995,-5.4512032,15.103839)"
       d="m 40.65864,37.967922 a 16.528622,3.9332814 0 1 1 -33.0572434,0 16.528622,3.9332814 0 1 1 33.0572434,0 z"
       sodipodi:ry="3.9332814"
       sodipodi:rx="16.528622"
       sodipodi:cy="37.967922"
       sodipodi:cx="24.130018"
       id="path4475"
       style="opacity:0.17112301;color:#000000;fill:url(#radialGradient2842);fill-opacity:1;fill-rule:evenodd;stroke:none;stroke-width:1;marker:none;visibility:visible;display:inline;overflow:visible"
       sodipodi:type="arc" />
    <path
       inkscape:connector-curvature="0"
       style="color:#000000;fill:#dcdcdc;fill-opacity:1;fill-rule:evenodd;stroke:url(#linearGradient3042);stroke-width:1.00000048;stroke-linecap:round;stroke-linejoin:miter;stroke-miterlimit:10;stroke-opacity:1;stroke-dasharray:none;stroke-dashoffset:0;marker:none;visibility:visible;display:inline;overflow:visible"
       d="m 9.3498463,25.551456 c -4.069565,0 -7.3724004,3.302836 -7.3724004,7.372401 0,4.069565 3.3028354,7.372401 7.3724004,7.372401 1.7397777,0 3.2755007,-0.692197 4.5368617,-1.701324 -0.102689,0.503441 -0.03902,1.017684 0.378072,1.379963 l 5.482042,4.763705 c 0.616708,0.535664 1.543731,0.46548 2.079395,-0.151229 0.535664,-0.616709 0.465479,-1.543731 -0.151229,-2.079395 l -5.482042,-4.763705 c -0.335763,-0.291639 -0.746439,-0.377984 -1.153119,-0.321361 0.99335,-1.256211 1.68242,-2.774402 1.68242,-4.499055 0,-4.069565 -3.302836,-7.372401 -7.3724007,-7.372401 z m -0.03781,0.613092 c 3.8197297,0 6.6458877,2.394475 6.6458877,6.645887 0,4.337557 -2.908345,6.645888 -6.6458877,6.645888 -3.6514745,0 -6.6458867,-2.739046 -6.6458867,-6.645888 0,-3.992053 2.9123192,-6.645887 6.6458867,-6.645887 z"
       id="path2844"
       sodipodi:nodetypes="csscccscccscczzzz" />
    <path
       inkscape:connector-curvature="0"
       id="path4430"
       d="m 9.3375143,25.519857 c -4.08272,0 -7.3962321,3.313512 -7.3962321,7.396231 0,4.082721 3.3135121,7.396232 7.3962321,7.396232 1.7454017,0 3.2860887,-0.694433 4.5515277,-1.706822 -0.103021,0.505068 -0.03914,1.020973 0.379293,1.384423 l 5.499763,4.779103 c 0.618702,0.537397 1.548721,0.466986 2.086117,-0.151717 0.537395,-0.618702 0.466984,-1.548721 -0.151718,-2.086116 l -5.499762,-4.779104 c -0.336849,-0.292582 -0.748852,-0.379207 -1.156847,-0.3224 0.996561,-1.260272 1.687858,-2.78337 1.687858,-4.513599 0,-4.082719 -3.313512,-7.396231 -7.3962317,-7.396231 z m -0.03793,1.593034 c 3.1405537,0 5.6894087,2.548855 5.6894087,5.689409 0,3.140555 -2.548855,5.689409 -5.6894087,5.689409 -3.140554,0 -5.6894092,-2.548854 -5.6894092,-5.689409 10e-8,-3.140554 2.5488552,-5.689409 5.6894092,-5.689409 z"
       style="color:#000000;fill:#dcdcdc;fill-opacity:1;fill-rule:evenodd;stroke:none;stroke-width:1.00000036;marker:none;visibility:visible;display:inline;overflow:visible" />
    <path
       inkscape:connector-curvature="0"
       sodipodi:nodetypes="ccccc"
       id="path4438"
       d="m 19.789564,44.768524 c -0.239336,-1.136594 0.698665,-2.405711 1.792026,-2.394188 0,0 -5.380183,-4.629055 -5.380183,-4.629055 -1.472396,-0.02835 -2.134751,1.136308 -1.888407,2.299961 l 5.476564,4.723282 z"
       style="color:#000000;fill:url(#linearGradient3038);fill-opacity:1;fill-rule:evenodd;stroke:none;stroke-width:1;marker:none;visibility:visible;display:inline;overflow:visible" />
    <path
       transform="matrix(0.6228715,0,0,0.6228715,-1.6766112,20.891162)"
       d="m 28.549437,18.920233 a 11.048544,11.048544 0 1 1 -22.0970883,0 11.048544,11.048544 0 1 1 22.0970883,0 z"
       sodipodi:ry="11.048544"
       sodipodi:rx="11.048544"
       sodipodi:cy="18.920233"
       sodipodi:cx="17.500893"
       id="path4450"
       style="color:#000000;fill:none;stroke:url(#linearGradient2372);stroke-width:0.8027336;stroke-linecap:round;stroke-linejoin:miter;stroke-miterlimit:10;stroke-opacity:1;stroke-dasharray:none;stroke-dashoffset:0;marker:none;visibility:visible;display:inline;overflow:visible"
       sodipodi:type="arc" />
    <path
       sodipodi:type="arc"
       style="color:#000000;fill:url(#radialGradient4493);fill-opacity:1;fill-rule:evenodd;stroke:none;stroke-width:1;marker:none;visibility:visible;display:inline;overflow:visible"
       id="path4485"
       sodipodi:cx="24.130018"
       sodipodi:cy="37.967922"
       sodipodi:rx="16.528622"
       sodipodi:ry="3.9332814"
       d="m 40.65864,37.967922 a 16.528622,3.9332814 0 1 1 -33.0572434,0 16.528622,3.9332814 0 1 1 33.0572434,0 z"
       transform="matrix(0.248882,0,0,0.3048105,4.5228248,31.789324)" />
    <rect
       transform="matrix(0.75298577,0.6580368,-0.648902,0.760872,0,0)"
       ry="0.94396824"
       rx="1.0683308"
       y="18.10437"
       x="35.775711"
       height="2.2202392"
       width="9.5242224"
       id="rect4495"
       style="opacity:0.43315507;color:#000000;fill:none;stroke:#ffffff;stroke-width:0.50001562;stroke-linecap:round;stroke-linejoin:miter;stroke-miterlimit:10;stroke-opacity:1;stroke-dasharray:none;stroke-dashoffset:0;marker:none;visibility:visible;display:inline;overflow:visible" />
    <path
       transform="matrix(0.699307,0,0,0.699307,-3.0761072,19.8302)"
       d="m 25.897786,18.478292 a 8.3085051,8.3085051 0 1 1 -16.61701,0 8.3085051,8.3085051 0 1 1 16.61701,0 z"
       sodipodi:ry="8.3085051"
       sodipodi:rx="8.3085051"
       sodipodi:cy="18.478292"
       sodipodi:cx="17.589281"
       id="path4452"
       style="color:#000000;fill:url(#radialGradient4460);fill-opacity:1;fill-rule:evenodd;stroke:#3063a3;stroke-width:0.71499395;stroke-linecap:round;stroke-linejoin:miter;stroke-miterlimit:10;stroke-opacity:1;stroke-dashoffset:0;marker:none;visibility:visible"
       sodipodi:type="arc" />
  </g>
</svg>
