<?xml version="1.0" encoding="UTF-8" standalone="no"?>
<!-- Created with Inkscape (http://www.inkscape.org/) -->

<svg
   xmlns:dc="http://purl.org/dc/elements/1.1/"
   xmlns:cc="http://creativecommons.org/ns#"
   xmlns:rdf="http://www.w3.org/1999/02/22-rdf-syntax-ns#"
   xmlns:svg="http://www.w3.org/2000/svg"
   xmlns="http://www.w3.org/2000/svg"
   xmlns:xlink="http://www.w3.org/1999/xlink"
   xmlns:sodipodi="http://sodipodi.sourceforge.net/DTD/sodipodi-0.dtd"
   xmlns:inkscape="http://www.inkscape.org/namespaces/inkscape"
   inkscape:export-ydpi="90.000000"
   inkscape:export-xdpi="90.000000"
   inkscape:export-filename="/home/jimmac/Desktop/wi-fi.png"
   width="24"
   height="24"
   id="svg11300"
   sodipodi:version="0.32"
   inkscape:version="0.48.3.1 r9886"
   sodipodi:docname="replay.svg"
   inkscape:output_extension="org.inkscape.output.svg.inkscape"
   version="1.1">
  <defs
     id="defs3">
    <inkscape:perspective
       sodipodi:type="inkscape:persp3d"
       inkscape:vp_x="0 : 24 : 1"
       inkscape:vp_y="0 : 1000 : 0"
       inkscape:vp_z="48 : 24 : 1"
       inkscape:persp3d-origin="24 : 16 : 1"
       id="perspective40" />
    <linearGradient
       inkscape:collect="always"
       id="linearGradient7138">
      <stop
         style="stop-color:#ffffff;stop-opacity:1;"
         offset="0"
         id="stop7140" />
      <stop
         style="stop-color:#ffffff;stop-opacity:0;"
         offset="1"
         id="stop7142" />
    </linearGradient>
    <linearGradient
       id="linearGradient7087">
      <stop
         style="stop-color:#888a85;stop-opacity:1;"
         offset="0"
         id="stop7089" />
      <stop
         style="stop-color:#b8b9b6;stop-opacity:1;"
         offset="1"
         id="stop7091" />
    </linearGradient>
    <linearGradient
       inkscape:collect="always"
       id="linearGradient7079">
      <stop
         style="stop-color:#000000;stop-opacity:1;"
         offset="0"
         id="stop7081" />
      <stop
         style="stop-color:#000000;stop-opacity:0;"
         offset="1"
         id="stop7083" />
    </linearGradient>
    <linearGradient
       inkscape:collect="always"
       id="linearGradient7069">
      <stop
         style="stop-color:#888a85;stop-opacity:1;"
         offset="0"
         id="stop7071" />
      <stop
         style="stop-color:#888a85;stop-opacity:0;"
         offset="1"
         id="stop7073" />
    </linearGradient>
    <radialGradient
       id="aigrd4"
       cx="9.3417997"
       cy="22.6138"
       r="14.1515"
       fx="9.3417997"
       fy="22.6138"
       gradientUnits="userSpaceOnUse">
      <stop
         offset="0"
         style="stop-color:#767676"
         id="stop6452" />
      <stop
         offset="1"
         style="stop-color:#484848"
         id="stop6454" />
    </radialGradient>
    <radialGradient
       r="14.1515"
       fy="24.735121"
       fx="20.655508"
       cy="24.735121"
       cx="20.655508"
       gradientUnits="userSpaceOnUse"
       id="radialGradient6540"
       xlink:href="#aigrd4"
       inkscape:collect="always"
       gradientTransform="translate(1.971678,9.220141)" />
    <linearGradient
       inkscape:collect="always"
       id="linearGradient7054">
      <stop
         style="stop-color:#ffffff;stop-opacity:1;"
         offset="0"
         id="stop7056" />
      <stop
         style="stop-color:#ffffff;stop-opacity:0;"
         offset="1"
         id="stop7058" />
    </linearGradient>
    <linearGradient
       inkscape:collect="always"
       xlink:href="#linearGradient7054"
       id="linearGradient7060"
       x1="21.03167"
       y1="31.867859"
       x2="21.107563"
       y2="-4.5986342"
       gradientUnits="userSpaceOnUse" />
    <linearGradient
       inkscape:collect="always"
       xlink:href="#linearGradient7069"
       id="linearGradient7075"
       x1="46.54464"
       y1="35.24506"
       x2="40.820396"
       y2="34.140205"
       gradientUnits="userSpaceOnUse"
       gradientTransform="matrix(0.884878,0,0,0.884878,5.318113,5.943159)" />
    <radialGradient
       inkscape:collect="always"
       xlink:href="#linearGradient7079"
       id="radialGradient7085"
       cx="23.157747"
       cy="26.963573"
       fx="23.157747"
       fy="26.963573"
       r="21.566757"
       gradientTransform="matrix(1,0,0,0.663934,0,9.061528)"
       gradientUnits="userSpaceOnUse" />
    <linearGradient
       inkscape:collect="always"
       xlink:href="#linearGradient7087"
       id="linearGradient7093"
       x1="23.816254"
       y1="12.75"
       x2="29.049412"
       y2="25.772396"
       gradientUnits="userSpaceOnUse" />
    <linearGradient
       inkscape:collect="always"
       xlink:href="#linearGradient7138"
       id="linearGradient7144"
       x1="43.6875"
       y1="32.133045"
       x2="26.625"
       y2="32.133045"
       gradientUnits="userSpaceOnUse"
       gradientTransform="translate(0,2)" />
    <radialGradient
       inkscape:collect="always"
       xlink:href="#linearGradient7079"
       id="radialGradient3027"
       gradientUnits="userSpaceOnUse"
       gradientTransform="matrix(1,0,0,0.663934,0,9.061528)"
       cx="23.157747"
       cy="26.963573"
       fx="23.157747"
       fy="26.963573"
       r="21.566757" />
    <radialGradient
       inkscape:collect="always"
       xlink:href="#aigrd4"
       id="radialGradient3029"
       gradientUnits="userSpaceOnUse"
       gradientTransform="translate(1.971678,9.220141)"
       cx="20.655508"
       cy="24.735121"
       fx="20.655508"
       fy="24.735121"
       r="14.1515" />
    <linearGradient
       inkscape:collect="always"
       xlink:href="#linearGradient7087"
       id="linearGradient3031"
       gradientUnits="userSpaceOnUse"
       x1="23.816254"
       y1="12.75"
       x2="29.049412"
       y2="25.772396" />
    <linearGradient
       inkscape:collect="always"
       xlink:href="#linearGradient7054"
       id="linearGradient3033"
       gradientUnits="userSpaceOnUse"
       x1="21.03167"
       y1="31.867859"
       x2="21.107563"
       y2="-4.5986342" />
    <linearGradient
       inkscape:collect="always"
       xlink:href="#linearGradient7069"
       id="linearGradient3035"
       gradientUnits="userSpaceOnUse"
       gradientTransform="matrix(0.884878,0,0,0.884878,5.318113,5.943159)"
       x1="46.54464"
       y1="35.24506"
       x2="40.820396"
       y2="34.140205" />
    <linearGradient
       inkscape:collect="always"
       xlink:href="#linearGradient7138"
       id="linearGradient3037"
       gradientUnits="userSpaceOnUse"
       gradientTransform="translate(0,2)"
       x1="43.6875"
       y1="32.133045"
       x2="26.625"
       y2="32.133045" />
  </defs>
  <sodipodi:namedview
     stroke="#ef2929"
     fill="#eeeeec"
     id="base"
     pagecolor="#ffffff"
     bordercolor="#666666"
     borderopacity="0.25490196"
     inkscape:pageopacity="0.0"
     inkscape:pageshadow="2"
     inkscape:zoom="8"
     inkscape:cx="11.692603"
     inkscape:cy="15.08971"
     inkscape:current-layer="layer1"
     showgrid="false"
     inkscape:grid-bbox="true"
     inkscape:document-units="px"
     inkscape:showpageshadow="false"
     inkscape:window-width="1366"
     inkscape:window-height="718"
     inkscape:window-x="0"
     inkscape:window-y="24"
     inkscape:window-maximized="1" />
  <metadata
     id="metadata4">
    <rdf:RDF>
      <cc:Work
         rdf:about="">
        <dc:format>image/svg+xml</dc:format>
        <dc:type
           rdf:resource="http://purl.org/dc/dcmitype/StillImage" />
        <dc:creator>
          <cc:Agent>
            <dc:title>Jakub Steiner</dc:title>
          </cc:Agent>
        </dc:creator>
        <dc:source>http://jimmac.musichall.cz</dc:source>
        <cc:license
           rdf:resource="http://creativecommons.org/licenses/publicdomain/" />
        <dc:title>Generic Video</dc:title>
        <dc:subject>
          <rdf:Bag>
            <rdf:li>video</rdf:li>
            <rdf:li>audio</rdf:li>
            <rdf:li>multimedia</rdf:li>
            <rdf:li>movie</rdf:li>
          </rdf:Bag>
        </dc:subject>
      </cc:Work>
      <cc:License
         rdf:about="http://creativecommons.org/licenses/publicdomain/">
        <cc:permits
           rdf:resource="http://creativecommons.org/ns#Reproduction" />
        <cc:permits
           rdf:resource="http://creativecommons.org/ns#Distribution" />
        <cc:permits
           rdf:resource="http://creativecommons.org/ns#DerivativeWorks" />
      </cc:License>
    </rdf:RDF>
  </metadata>
  <g
     id="layer1"
     inkscape:label="Layer 1"
     inkscape:groupmode="layer"
     transform="translate(0,-24)">
    <g
       id="g3016"
       transform="matrix(0.5,0,0,0.5,-0.730121,24.190159)">
      <path
         transform="translate(1.237437,0.762563)"
         inkscape:r_cy="true"
         inkscape:r_cx="true"
         d="m 44.724504,26.963573 c 0,7.908118 -9.655766,14.318914 -21.566757,14.318914 -11.910991,0 -21.5667569,-6.410796 -21.5667569,-14.318914 0,-7.908117 9.6557659,-14.318913 21.5667569,-14.318913 11.910991,0 21.566757,6.410796 21.566757,14.318913 z"
         sodipodi:ry="14.318913"
         sodipodi:rx="21.566757"
         sodipodi:cy="26.963573"
         sodipodi:cx="23.157747"
         id="path7077"
         style="opacity:0.70329674;color:#000000;fill:url(#radialGradient3027);fill-opacity:1;fill-rule:evenodd;stroke:none;stroke-width:1;marker:none;visibility:visible;display:inline;overflow:visible"
         sodipodi:type="arc" />
      <path
         sodipodi:type="arc"
         style="color:#000000;fill:#a1a39f;fill-opacity:1;fill-rule:evenodd;stroke:#6d6f6a;stroke-width:0.7190817;stroke-linecap:round;stroke-linejoin:round;stroke-miterlimit:4;stroke-opacity:1;stroke-dasharray:none;stroke-dashoffset:0;marker:none;visibility:visible;display:inline;overflow:visible"
         id="path7028"
         sodipodi:cx="25.75"
         sodipodi:cy="21"
         sodipodi:rx="14.75"
         sodipodi:ry="8.25"
         d="m 40.5,21 c 0,4.556349 -6.6038,8.25 -14.75,8.25 C 17.6038,29.25 11,25.556349 11,21 c 0,-4.556349 6.6038,-8.25 14.75,-8.25 8.1462,0 14.75,3.693651 14.75,8.25 z"
         inkscape:r_cx="true"
         inkscape:r_cy="true"
         transform="matrix(1.254237,0,0,1.541926,-9.79661,-6.279528)" />
      <path
         transform="matrix(0.764011,0,0,1.001814,2.310475,2.543083)"
         inkscape:r_cy="true"
         inkscape:r_cx="true"
         d="m 40.5,21 c 0,4.556349 -6.6038,8.25 -14.75,8.25 C 17.6038,29.25 11,25.556349 11,21 c 0,-4.556349 6.6038,-8.25 14.75,-8.25 8.1462,0 14.75,3.693651 14.75,8.25 z"
         sodipodi:ry="8.25"
         sodipodi:rx="14.75"
         sodipodi:cy="21"
         sodipodi:cx="25.75"
         id="path7042"
         style="color:#000000;fill:#555753;fill-opacity:1;fill-rule:evenodd;stroke:none;stroke-width:1.11522388;marker:none;visibility:visible;display:inline;overflow:visible"
         sodipodi:type="arc" />
      <path
         inkscape:connector-curvature="0"
         sodipodi:nodetypes="czccc"
         inkscape:r_cy="true"
         inkscape:r_cx="true"
         id="path6456"
         d="m 46.025804,41.226233 c 0,0 -8.323895,-3.737007 -13.655999,-3.266718 -5.683012,0.501239 -15.176777,0.837437 -18.898097,-5.03934 15.798097,4.764466 23.08699,-3.145748 33.779379,1.309515 0,0 -1.225283,6.996543 -1.225283,6.996543 z"
         style="fill:url(#radialGradient3029);fill-rule:nonzero;stroke:#3b3d39;stroke-miterlimit:4;stroke-opacity:1" />
      <path
         sodipodi:type="arc"
         style="color:#000000;fill:url(#linearGradient3031);fill-opacity:1;fill-rule:evenodd;stroke:#757972;stroke-width:1.23408842;stroke-linecap:round;stroke-linejoin:round;stroke-miterlimit:4;stroke-opacity:1;stroke-dasharray:none;stroke-dashoffset:0;marker:none;visibility:visible;display:inline;overflow:visible"
         id="path7026"
         sodipodi:cx="25.75"
         sodipodi:cy="21"
         sodipodi:rx="14.75"
         sodipodi:ry="8.25"
         d="m 40.5,21 c 0,4.556349 -6.6038,8.25 -14.75,8.25 C 17.6038,29.25 11,25.556349 11,21 c 0,-4.556349 6.6038,-8.25 14.75,-8.25 8.1462,0 14.75,3.693651 14.75,8.25 z"
         inkscape:r_cx="true"
         inkscape:r_cy="true"
         transform="matrix(0.760969,0,0,0.986663,2.905048,0.584267)" />
      <path
         inkscape:connector-curvature="0"
         inkscape:r_cy="true"
         inkscape:r_cx="true"
         id="path7012"
         d="M 21.09375,7.71875 C 11.536229,8.2444238 4.0000001,14.13337 4,21.25 4,28.711046 12.288003,34.781251 22.5,34.78125 32.711998,34.78125 41,28.711045 41,21.25 41,13.788954 32.711998,7.71875 22.5,7.71875 c -0.03989,0 -0.08517,-1.845e-4 -0.125,0 -0.238056,0.0011 -0.482906,-0.00764 -0.71875,0 -0.115158,0.00373 -0.22915,-0.00527 -0.34375,0 -0.0755,0.00347 -0.143494,-0.00414 -0.21875,0 z m -1.375,2.1875 c 0.06325,-0.00511 0.123591,0.00347 0.1875,0 0.134104,-0.00728 0.269544,0 0.40625,0 2.916392,2e-7 5.28125,1.702203 5.28125,3.78125 0,2.079047 -2.364859,3.75 -5.28125,3.75 -2.916391,0 -5.28125,-1.670953 -5.28125,-3.75 0,-1.935148 2.051954,-3.568463 4.6875,-3.78125 z m 11.5,4.59375 c 0.06665,-0.006 0.120185,0.0043 0.1875,0 0.116752,-0.0074 0.225136,0.0021 0.34375,0 0.0482,-8.73e-4 0.07651,0 0.125,0 3.103453,0 5.625,1.814203 5.625,4.03125 0,2.217046 -2.521546,4 -5.625,4 -3.103454,1e-6 -5.625,-1.782953 -5.625,-4 -1e-6,-2.048003 2.191783,-3.782807 4.96875,-4.03125 z M 12,17.65625 c 0.217826,-0.01782 0.463035,0 0.6875,0 3.192389,0 5.78125,1.842348 5.78125,4.125 0,2.282652 -2.588861,4.125 -5.78125,4.125 -3.1923882,0 -5.78125,-1.842348 -5.78125,-4.125 0,-2.122152 2.2136041,-3.889336 5.09375,-4.125 z m 11.53125,5.125 c 0.02398,-0.0028 0.03844,0.0026 0.0625,0 0.0027,-1.17e-4 0.0287,-3.3e-5 0.03125,0 0.0026,4.5e-5 0.02849,9.9e-5 0.03125,0 0.0062,1.06e-4 0.02806,1.15e-4 0.03125,0 0.02615,1.79e-4 0.06751,-3.83e-4 0.09375,0 0.0032,-7.7e-5 0.02502,-8.3e-5 0.03125,0 0.240976,-0.01978 0.47043,0 0.71875,0 3.531666,0 6.40625,2.029561 6.40625,4.5625 0,2.53294 -2.874584,4.59375 -6.40625,4.59375 -3.531666,0 -6.40625,-2.060811 -6.40625,-4.59375 0,-2.281969 2.361444,-4.208711 5.40625,-4.5625 z"
         style="color:#000000;fill:#d3d7cf;fill-opacity:1;fill-rule:evenodd;stroke:#888a85;stroke-width:1;stroke-linecap:round;stroke-linejoin:round;stroke-miterlimit:4;stroke-opacity:1;stroke-dasharray:none;stroke-dashoffset:0;marker:none;visibility:visible;display:inline;overflow:visible" />
      <path
         transform="matrix(0.950533,0,0,0.9375,1.450995,3.320621)"
         inkscape:r_cy="true"
         inkscape:r_cx="true"
         d="m 40.65864,19.008621 c 0,7.419962 -8.270718,13.435029 -18.473166,13.435029 -10.202447,0 -18.4731651,-6.015067 -18.4731651,-13.435029 0,-7.419961 8.2707181,-13.4350288 18.4731651,-13.4350288 10.202448,0 18.473166,6.0150678 18.473166,13.4350288 z"
         sodipodi:ry="13.435029"
         sodipodi:rx="18.473166"
         sodipodi:cy="19.008621"
         sodipodi:cx="22.185474"
         id="path7044"
         style="color:#000000;fill:none;stroke:url(#linearGradient3033);stroke-width:1.05932879;stroke-linecap:round;stroke-linejoin:round;stroke-miterlimit:4;stroke-opacity:1;stroke-dasharray:none;stroke-dashoffset:0;marker:none;visibility:visible;display:inline;overflow:visible"
         sodipodi:type="arc" />
      <path
         inkscape:connector-curvature="0"
         sodipodi:nodetypes="ccccc"
         inkscape:r_cy="true"
         inkscape:r_cx="true"
         id="path7067"
         d="m 46.875,34.493906 -1.081562,6.04999 C 43.18442,39.668459 41.611389,38.97574 38.722272,38.287036 l 0.331829,-4.912647 c 1.898531,-0.201306 4.863279,0.141734 7.820899,1.119517 z"
         style="color:#000000;fill:url(#linearGradient3035);fill-opacity:1;fill-rule:evenodd;stroke:none;stroke-width:1;marker:none;visibility:visible;display:inline;overflow:visible" />
      <path
         inkscape:connector-curvature="0"
         sodipodi:nodetypes="cccc"
         inkscape:r_cy="true"
         inkscape:r_cx="true"
         id="path7136"
         d="m 46.875,34.3125 -0.1875,0.875 c -8.104899,-3.028886 -15.566065,-0.226719 -23.375,0 10.611053,-0.882579 14.090243,-3.715657 23.5625,-0.875 z"
         style="opacity:0.70329674;color:#000000;fill:url(#linearGradient3037);fill-opacity:1;fill-rule:evenodd;stroke:none;stroke-width:1;marker:none;visibility:visible;display:inline;overflow:visible" />
    </g>
  </g>
</svg>
