<?xml version="1.0" encoding="UTF-8" standalone="no"?>
<!-- Created with Inkscape (http://www.inkscape.org/) -->

<svg
   xmlns:dc="http://purl.org/dc/elements/1.1/"
   xmlns:cc="http://creativecommons.org/ns#"
   xmlns:rdf="http://www.w3.org/1999/02/22-rdf-syntax-ns#"
   xmlns:svg="http://www.w3.org/2000/svg"
   xmlns="http://www.w3.org/2000/svg"
   xmlns:xlink="http://www.w3.org/1999/xlink"
   xmlns:sodipodi="http://sodipodi.sourceforge.net/DTD/sodipodi-0.dtd"
   xmlns:inkscape="http://www.inkscape.org/namespaces/inkscape"
   width="24"
   height="24"
   id="svg3302"
   sodipodi:version="0.32"
   inkscape:version="0.48.2 r9819"
   inkscape:output_extension="org.inkscape.output.svg.inkscape"
   inkscape:export-xdpi="90"
   inkscape:export-ydpi="90"
   version="1.1"
   sodipodi:docname="xmpp.svg">
  <title
     id="title3015">XMPP Protocol Logo</title>
  <defs
     id="defs3304">
    <linearGradient
       id="linearGradient2222"
       inkscape:collect="always">
      <stop
         id="stop2224"
         offset="0"
         style="stop-color:#429538;stop-opacity:1" />
      <stop
         id="stop2226"
         offset="1"
         style="stop-color:#033e6f;stop-opacity:1" />
    </linearGradient>
    <linearGradient
       id="linearGradient2214"
       inkscape:collect="always">
      <stop
         id="stop2216"
         offset="0"
         style="stop-color:#033e6f;stop-opacity:1" />
      <stop
         id="stop2218"
         offset="1"
         style="stop-color:#14a9de;stop-opacity:1" />
    </linearGradient>
    <linearGradient
       inkscape:collect="always"
       id="linearGradient3417">
      <stop
         style="stop-color:#df5219;stop-opacity:1"
         offset="0"
         id="stop3419" />
      <stop
         style="stop-color:#034072;stop-opacity:1"
         offset="1"
         id="stop3421" />
    </linearGradient>
    <linearGradient
       inkscape:collect="always"
       id="linearGradient3334">
      <stop
         style="stop-color:#034072;stop-opacity:1"
         offset="0"
         id="stop3336" />
      <stop
         style="stop-color:#109cd3;stop-opacity:1"
         offset="1"
         id="stop3338" />
    </linearGradient>
    <linearGradient
       inkscape:collect="always"
       xlink:href="#linearGradient2214"
       id="linearGradient3340"
       x1="5.0133924"
       y1="12.455358"
       x2="15.638392"
       y2="30.098215"
       gradientUnits="userSpaceOnUse" />
    <linearGradient
       inkscape:collect="always"
       xlink:href="#linearGradient3334"
       id="linearGradient3392"
       gradientUnits="userSpaceOnUse"
       x1="5.0133924"
       y1="12.455358"
       x2="15.638392"
       y2="30.098215" />
    <linearGradient
       inkscape:collect="always"
       xlink:href="#linearGradient3417"
       id="linearGradient3423"
       x1="31.736355"
       y1="20.841261"
       x2="35.292381"
       y2="22.255474"
       gradientUnits="userSpaceOnUse"
       gradientTransform="matrix(0.5,0,0,0.5,0.031772,25.834592)" />
    <filter
       inkscape:collect="always"
       x="-0.49491513"
       width="1.9898303"
       y="-1.0582331"
       height="3.1164663"
       id="filter3871"
       color-interpolation-filters="sRGB">
      <feGaussianBlur
         inkscape:collect="always"
         stdDeviation="5.4785069"
         id="feGaussianBlur3873" />
    </filter>
    <linearGradient
       inkscape:collect="always"
       xlink:href="#linearGradient2222"
       id="linearGradient2206"
       gradientUnits="userSpaceOnUse"
       x1="18.734463"
       y1="21.519651"
       x2="15.642859"
       y2="23.876795"
       gradientTransform="matrix(0.5,0,0,0.5,0.031772,25.834592)" />
  </defs>
  <sodipodi:namedview
     id="base"
     pagecolor="#ffffff"
     bordercolor="#666666"
     borderopacity="1.0"
     inkscape:pageopacity="0.0"
     inkscape:pageshadow="2"
     inkscape:zoom="4.9497475"
     inkscape:cx="15.493334"
     inkscape:cy="4.928944"
     inkscape:current-layer="layer1"
     showgrid="true"
     inkscape:grid-bbox="true"
     inkscape:document-units="px"
     inkscape:window-width="1364"
     inkscape:window-height="715"
     inkscape:window-x="0"
     inkscape:window-y="23"
     inkscape:window-maximized="0" />
  <metadata
     id="metadata3307">
    <rdf:RDF>
      <cc:Work
         rdf:about="">
        <dc:format>image/svg+xml</dc:format>
        <dc:type
           rdf:resource="http://purl.org/dc/dcmitype/StillImage" />
        <dc:title>XMPP Protocol Logo</dc:title>
        <dc:creator>
          <cc:Agent>
            <dc:title>Pidgin Developers</dc:title>
          </cc:Agent>
        </dc:creator>
        <cc:license
           rdf:resource="GPL" />
      </cc:Work>
    </rdf:RDF>
  </metadata>
  <g
     id="layer1"
     inkscape:label="Layer 1"
     inkscape:groupmode="layer"
     transform="translate(0,-24)">
    <path
       sodipodi:type="arc"
       style="opacity:0.29670332;fill:#2e3436;fill-opacity:1;stroke:none;filter:url(#filter3871)"
       id="path3425"
       sodipodi:cx="22.273863"
       sodipodi:cy="36.736797"
       sodipodi:rx="13.283506"
       sodipodi:ry="6.2124381"
       d="m 35.557369,36.736797 a 13.283506,6.2124381 0 1 1 -26.5670126,0 13.283506,6.2124381 0 1 1 26.5670126,0 z"
       transform="matrix(0.5495156,0,0,0.1971452,-0.176291,38.496171)" />
    <path
       style="fill:#da6812;fill-opacity:1;stroke:#a24900;stroke-width:0.5;stroke-miterlimit:4;stroke-opacity:1"
       d="m 22.781772,30.032816 -8.01013,2.12141 c 0.580837,2.803174 -2.284727,11.74554 -10.086924,13.858938 9.52342,0 18.097054,-9.739212 18.097054,-15.980348 z"
       id="path3380"
       sodipodi:nodetypes="cccc"
       inkscape:connector-curvature="0" />
    <path
       sodipodi:type="inkscape:offset"
       inkscape:radius="-0.56227452"
       inkscape:original="M 1.53125 8.40625 C 1.53125 20.888522 18.671909 40.34375 37.71875 40.34375 C 22.114357 36.116954 16.369574 18.231347 17.53125 12.625 L 1.53125 8.40625 z "
       style="fill:url(#linearGradient3392);fill-opacity:1;stroke:none"
       id="path3382"
       d="m 2.15625,9.15625 c 0.3234798,5.885869 4.4006658,13.411217 10.71875,19.5 5.649354,5.444323 13.032207,9.70182 20.90625,10.8125 C 27.844419,36.773348 23.584667,32.10141 20.84375,27.28125 19.19604,24.383597 18.100702,21.459043 17.46875,18.875 16.896533,16.535213 16.729528,14.546192 16.9375,13.03125 L 2.15625,9.15625 z"
       transform="matrix(-0.5,0,0,0.5,23.541861,25.834592)" />
    <path
       style="fill:#abbb25;fill-opacity:1;stroke:none"
       d="m 19.149004,31.245306 -4.071428,1.089286 c 0.03571,1.214286 -0.410715,8.946429 -8.303572,13.214286 8.575703,-1.177523 12.482143,-11.516246 12.375,-14.303572 z"
       id="path3384"
       sodipodi:nodetypes="cccc"
       inkscape:connector-curvature="0" />
    <path
       style="fill:none;stroke:url(#linearGradient3423);stroke-width:0.5;stroke-miterlimit:4;stroke-opacity:1"
       d="m 22.781772,30.032816 -8.01013,2.12141 c 0.580837,2.803174 -2.284727,11.74554 -10.086924,13.858938 9.52342,0 18.097054,-9.739212 18.097054,-15.980348 z"
       id="path3388"
       sodipodi:nodetypes="cccc"
       inkscape:connector-curvature="0" />
    <path
       style="fill:#df5219;fill-opacity:1;stroke:none"
       d="m 19.502558,31.144291 -4.424982,1.190301 c 0.03571,1.214286 -0.410715,8.946429 -8.303572,13.214286 C 15.349707,44.371355 19.6097,33.931616 19.502558,31.144291 z"
       id="path3386"
       sodipodi:nodetypes="cccc"
       inkscape:connector-curvature="0" />
    <path
       style="fill:#e96d1f;fill-opacity:1;stroke:none"
       d="m 17.201022,31.827939 -2.058737,0.506653 c 0.03571,1.214286 -0.410715,8.946429 -8.303572,13.214286 8.96856,-2.248952 11.168945,-12.802396 10.362309,-13.720939 z"
       id="path2228"
       sodipodi:nodetypes="cccc"
       inkscape:connector-curvature="0" />
    <path
       sodipodi:type="inkscape:offset"
       inkscape:radius="-1.0305283"
       inkscape:original="M 1.53125 8.40625 C 1.53125 20.888522 18.671909 40.34375 37.71875 40.34375 C 22.114357 36.116954 16.369574 18.231347 17.53125 12.625 L 1.53125 8.40625 z "
       style="opacity:0.4;fill:none;stroke:#ffffff;stroke-width:1;stroke-miterlimit:4;stroke-opacity:1"
       id="path3390"
       d="m 2.78125,9.8125 c 0.5654031,5.606121 4.3802284,12.69268 10.40625,18.5 C 18.090567,33.03762 24.31812,36.855835 31,38.46875 26.325029,35.650434 22.791678,31.640043 20.4375,27.5 18.767353,24.562889 17.642711,21.596789 17,18.96875 16.46674,16.788257 16.328823,14.953857 16.46875,13.40625 L 2.78125,9.8125 z"
       transform="matrix(-0.5,0,0,0.5,23.541861,25.834592)" />
    <path
       style="fill:#da6812;fill-opacity:1;stroke:#a24900;stroke-width:0.5;stroke-miterlimit:4;stroke-opacity:1"
       d="m 0.791861,30.032816 8.010131,2.12141 c -0.580838,2.803174 2.284727,11.74554 10.086923,13.858938 -9.52342,0 -18.097054,-9.739212 -18.097054,-15.980348 z"
       id="rect3321"
       sodipodi:nodetypes="cccc"
       inkscape:connector-curvature="0" />
    <path
       sodipodi:type="inkscape:offset"
       inkscape:radius="-0.56227452"
       inkscape:original="M 1.53125 8.40625 C 1.53125 20.888522 18.671909 40.34375 37.71875 40.34375 C 22.114357 36.116954 16.369574 18.231347 17.53125 12.625 L 1.53125 8.40625 z "
       style="fill:url(#linearGradient3340);fill-opacity:1;stroke:none"
       id="path3332"
       d="m 2.15625,9.15625 c 0.3234798,5.885869 4.4006658,13.411217 10.71875,19.5 5.649354,5.444323 13.032207,9.70182 20.90625,10.8125 C 27.844419,36.773348 23.584667,32.10141 20.84375,27.28125 19.19604,24.383597 18.100702,21.459043 17.46875,18.875 16.896533,16.535213 16.729528,14.546192 16.9375,13.03125 L 2.15625,9.15625 z"
       transform="matrix(0.5,0,0,0.5,0.031772,25.834592)" />
    <path
       style="fill:#08aec5;fill-opacity:1;stroke:none"
       d="m 4.424629,31.245306 4.071429,1.089286 C 8.460348,33.548878 8.906772,41.281021 16.79963,45.548878 8.223927,44.371355 4.317486,34.032632 4.424629,31.245306 z"
       id="rect3326"
       sodipodi:nodetypes="cccc"
       inkscape:connector-curvature="0" />
    <path
       style="fill:#429538;fill-opacity:1;stroke:none"
       d="m 4.121583,31.245306 4.374475,1.089286 C 8.460348,33.548878 8.906772,41.281021 16.79963,45.548878 8.223927,44.371355 3.913425,34.386185 4.121583,31.245306 z"
       id="path3342"
       sodipodi:nodetypes="cccc"
       inkscape:connector-curvature="0" />
    <path
       style="fill:#a0ce67;fill-opacity:1;stroke:none"
       d="m 6.43732,31.827939 2.058738,0.506653 C 8.460348,33.548878 8.906772,41.281021 16.79963,45.548878 7.83107,43.299926 5.630685,32.746482 6.43732,31.827939 z"
       id="path2220"
       sodipodi:nodetypes="cccc"
       inkscape:connector-curvature="0" />
    <path
       style="fill:none;stroke:url(#linearGradient2206);stroke-width:0.5;stroke-miterlimit:4;stroke-opacity:1"
       d="m 0.791861,30.032816 8.010131,2.12141 c -0.580838,2.803174 2.284727,11.74554 10.086923,13.858938 -9.52342,0 -18.097054,-9.739212 -18.097054,-15.980348 z"
       id="path3352"
       sodipodi:nodetypes="cccc"
       inkscape:connector-curvature="0" />
    <path
       sodipodi:type="inkscape:offset"
       inkscape:radius="-1.0305283"
       inkscape:original="M 1.53125 8.40625 C 1.53125 20.888522 18.671909 40.34375 37.71875 40.34375 C 22.114357 36.116954 16.369574 18.231347 17.53125 12.625 L 1.53125 8.40625 z "
       style="opacity:0.4;fill:none;stroke:#ffffff;stroke-width:1;stroke-miterlimit:4;stroke-opacity:1"
       id="path3366"
       d="m 2.78125,9.8125 c 0.5654031,5.606121 4.3802284,12.69268 10.40625,18.5 C 18.090567,33.03762 24.31812,36.855835 31,38.46875 26.325029,35.650434 22.791678,31.640043 20.4375,27.5 18.767353,24.562889 17.642711,21.596789 17,18.96875 16.46674,16.788257 16.328823,14.953857 16.46875,13.40625 L 2.78125,9.8125 z"
       transform="matrix(0.5,0,0,0.5,0.031772,25.834592)" />
  </g>
</svg>
